<?xml version="1.0" encoding="utf-8" standalone="no"?>
<!DOCTYPE svg PUBLIC "-//W3C//DTD SVG 1.1//EN"
  "http://www.w3.org/Graphics/SVG/1.1/DTD/svg11.dtd">
<!-- Created with matplotlib (https://matplotlib.org/) -->
<svg height="345.6pt" version="1.1" viewBox="0 0 460.8 345.6" width="460.8pt" xmlns="http://www.w3.org/2000/svg" xmlns:xlink="http://www.w3.org/1999/xlink">
 <defs>
  <style type="text/css">
*{stroke-linecap:butt;stroke-linejoin:round;}
  </style>
 </defs>
 <g id="figure_1">
  <g id="patch_1">
   <path d="M 0 345.6 
L 460.8 345.6 
L 460.8 0 
L 0 0 
z
" style="fill:#ffffff;"/>
  </g>
  <g id="axes_1">
   <g id="patch_2">
    <path d="M 57.6 307.584 
L 414.72 307.584 
L 414.72 41.472 
L 57.6 41.472 
z
" style="fill:#ffffff;"/>
   </g>
   <g id="PolyCollection_1">
    <path clip-path="url(#p9e3222a68c)" d="M 73.832727 158.808759 
L 73.832727 177.290114 
L 75.196822 211.483159 
L 76.560917 227.191383 
L 77.925011 93.440089 
L 79.289106 103.620135 
L 80.653201 81.321256 
L 82.017296 206.557769 
L 83.38139 225.293621 
L 84.745485 137.849934 
L 86.10958 105.191136 
L 87.473675 261.5757 
L 88.837769 103.770606 
L 90.201864 209.344079 
L 91.565959 146.041091 
L 92.930053 197.398165 
L 94.294148 125.986288 
L 95.658243 93.972653 
L 97.022338 129.016842 
L 98.386432 138.736403 
L 99.750527 222.578623 
L 101.114622 95.096216 
L 102.478717 146.257855 
L 103.842811 100.553728 
L 105.206906 136.495577 
L 106.571001 245.566057 
L 107.935095 145.662745 
L 109.29919 140.372621 
L 110.663285 275.972634 
L 112.02738 237.426659 
L 113.391474 124.038579 
L 114.755569 190.041274 
L 116.119664 266.48674 
L 117.483759 269.730068 
L 118.847853 140.444118 
L 120.211948 118.090644 
L 121.576043 237.242146 
L 122.940138 76.345847 
L 124.304232 145.825191 
L 125.668327 166.93372 
L 127.032422 136.154194 
L 128.396516 103.800765 
L 129.760611 147.761386 
L 131.124706 190.836506 
L 132.488801 170.947831 
L 133.852895 151.469845 
L 135.21699 125.960182 
L 136.581085 96.302609 
L 137.94518 250.652687 
L 139.309274 180.35997 
L 140.673369 290.861614 
L 142.037464 155.139836 
L 143.401558 133.140837 
L 144.765653 247.568872 
L 146.129748 97.336885 
L 147.493843 256.763019 
L 148.857937 131.681798 
L 150.222032 152.936063 
L 151.586127 200.920619 
L 152.950222 145.371252 
L 154.314316 123.229453 
L 155.678411 87.346421 
L 157.042506 291.305027 
L 158.4066 100.405978 
L 159.770695 244.936813 
L 161.13479 258.450925 
L 162.498885 109.624541 
L 163.862979 92.639469 
L 165.227074 106.524448 
L 166.591169 234.563421 
L 167.955264 70.132953 
L 169.319358 205.868248 
L 170.683453 173.142203 
L 172.047548 139.285637 
L 173.411642 279.089065 
L 174.775737 73.61335 
L 176.139832 204.073365 
L 177.503927 108.716406 
L 178.868021 132.935563 
L 180.232116 271.421216 
L 181.596211 128.427567 
L 182.960306 112.585748 
L 184.3244 198.092326 
L 185.688495 240.813799 
L 187.05259 124.026114 
L 188.416684 89.306545 
L 189.780779 217.47888 
L 191.144874 154.48519 
L 192.508969 152.527324 
L 193.873063 244.074227 
L 195.237158 280.733354 
L 196.601253 134.007514 
L 197.965348 100.378791 
L 199.329442 99.856435 
L 200.693537 249.836738 
L 202.057632 262.600705 
L 203.421727 72.567325 
L 204.785821 105.968789 
L 206.149916 203.79713 
L 207.514011 123.22234 
L 208.878105 84.266947 
L 210.2422 205.443988 
L 211.606295 214.825528 
L 212.97039 280.340388 
L 214.334484 156.411329 
L 215.698579 289.991937 
L 217.062674 61.332265 
L 218.426769 235.505463 
L 219.790863 145.084891 
L 221.154958 161.444084 
L 222.519053 104.23572 
L 223.883147 114.686107 
L 225.247242 144.616996 
L 226.611337 224.599895 
L 227.975432 88.18918 
L 229.339526 83.828958 
L 230.703621 238.330375 
L 232.067716 76.481797 
L 233.431811 152.553613 
L 234.795905 106.569864 
L 236.16 107.004888 
L 237.524095 189.407521 
L 238.888189 237.014085 
L 240.252284 272.23942 
L 241.616379 74.360079 
L 242.980474 235.861018 
L 244.344568 160.864092 
L 245.708663 145.946553 
L 247.072758 100.060687 
L 248.436853 146.361823 
L 249.800947 146.526932 
L 251.165042 146.67362 
L 252.529137 218.566774 
L 253.893231 156.897884 
L 255.257326 99.567281 
L 256.621421 272.371537 
L 257.985516 69.34219 
L 259.34961 280.685358 
L 260.713705 266.994297 
L 262.0778 181.780379 
L 263.441895 136.053482 
L 264.805989 104.222622 
L 266.170084 121.083484 
L 267.534179 66.749734 
L 268.898273 281.316608 
L 270.262368 62.944338 
L 271.626463 94.713991 
L 272.990558 210.025336 
L 274.354652 224.257754 
L 275.718747 222.160751 
L 277.082842 117.782198 
L 278.446937 98.049664 
L 279.811031 225.63042 
L 281.175126 138.829972 
L 282.539221 203.858915 
L 283.903316 163.827549 
L 285.26741 225.623298 
L 286.631505 93.853897 
L 287.9956 116.166586 
L 289.359694 85.659559 
L 290.723789 274.280473 
L 292.087884 239.731099 
L 293.451979 72.354686 
L 294.816073 199.272511 
L 296.180168 201.632877 
L 297.544263 196.641747 
L 298.908358 130.088879 
L 300.272452 195.478868 
L 301.636547 58.807591 
L 303.000642 267.965863 
L 304.364736 153.314503 
L 305.728831 220.108069 
L 307.092926 91.957411 
L 308.457021 208.933065 
L 309.821115 228.386382 
L 311.18521 245.040554 
L 312.549305 154.678198 
L 313.9134 135.902633 
L 315.277494 90.662302 
L 316.641589 153.280927 
L 318.005684 282.890763 
L 319.369778 190.324757 
L 320.733873 129.214961 
L 322.097968 102.697821 
L 323.462063 242.230165 
L 324.826157 85.75551 
L 326.190252 117.151716 
L 327.554347 147.951824 
L 328.918442 152.490605 
L 330.282536 204.575338 
L 331.646631 204.350007 
L 333.010726 127.099833 
L 334.37482 228.690656 
L 335.738915 90.674173 
L 337.10301 168.651458 
L 338.467105 219.897647 
L 339.831199 265.632172 
L 341.195294 104.446439 
L 342.559389 226.527108 
L 343.923484 122.738993 
L 345.287578 95.949106 
L 346.651673 157.51679 
L 348.015768 226.243679 
L 349.379862 144.111616 
L 350.743957 248.592976 
L 352.108052 138.040694 
L 353.472147 124.703886 
L 354.836241 205.576044 
L 356.200336 218.320204 
L 357.564431 81.583981 
L 358.928526 108.598187 
L 360.29262 178.496591 
L 361.656715 123.364949 
L 363.02081 127.570391 
L 364.384905 198.974476 
L 365.748999 223.708703 
L 367.113094 103.465851 
L 368.477189 194.592142 
L 369.841283 79.970154 
L 371.205378 240.070173 
L 372.569473 166.765842 
L 373.933568 221.787758 
L 375.297662 107.6102 
L 376.661757 222.217907 
L 378.025852 174.2335 
L 379.389947 171.232701 
L 380.754041 215.849688 
L 382.118136 219.220367 
L 383.482231 94.80368 
L 384.846325 112.579944 
L 386.21042 99.016203 
L 387.574515 172.850463 
L 388.93861 180.793372 
L 390.302704 134.139727 
L 391.666799 98.612677 
L 393.030894 145.213795 
L 394.394989 246.152525 
L 395.759083 102.520006 
L 397.123178 223.386451 
L 398.487273 99.494018 
L 398.487273 96.55013 
L 398.487273 96.55013 
L 397.123178 215.049181 
L 395.759083 100.765588 
L 394.394989 234.117788 
L 393.030894 139.974414 
L 391.666799 89.385405 
L 390.302704 130.406396 
L 388.93861 172.696111 
L 387.574515 162.466714 
L 386.21042 97.427052 
L 384.846325 102.22159 
L 383.482231 88.389917 
L 382.118136 216.551473 
L 380.754041 210.790522 
L 379.389947 160.201721 
L 378.025852 162.209917 
L 376.661757 220.490267 
L 375.297662 103.707918 
L 373.933568 211.234108 
L 372.569473 152.838424 
L 371.205378 238.174983 
L 369.841283 75.87723 
L 368.477189 178.831868 
L 367.113094 101.606298 
L 365.748999 210.923866 
L 364.384905 178.979206 
L 363.02081 114.70465 
L 361.656715 116.891289 
L 360.29262 167.770317 
L 358.928526 99.510068 
L 357.564431 77.720592 
L 356.200336 201.397661 
L 354.836241 195.609549 
L 353.472147 121.999308 
L 352.108052 127.499294 
L 350.743957 236.246881 
L 349.379862 128.19693 
L 348.015768 221.233995 
L 346.651673 154.013577 
L 345.287578 92.125568 
L 343.923484 121.019014 
L 342.559389 217.078428 
L 341.195294 97.213353 
L 339.831199 253.470614 
L 338.467105 211.078665 
L 337.10301 157.742899 
L 335.738915 88.503462 
L 334.37482 222.040459 
L 333.010726 125.461324 
L 331.646631 196.922755 
L 330.282536 197.571543 
L 328.918442 140.601737 
L 327.554347 133.347596 
L 326.190252 112.917245 
L 324.826157 81.412437 
L 323.462063 240.112224 
L 322.097968 96.040495 
L 320.733873 124.122169 
L 319.369778 181.463541 
L 318.005684 270.431409 
L 316.641589 149.349309 
L 315.277494 84.069117 
L 313.9134 134.233581 
L 312.549305 143.068669 
L 311.18521 235.87496 
L 309.821115 224.10475 
L 308.457021 202.237759 
L 307.092926 89.620859 
L 305.728831 218.387749 
L 304.364736 142.930536 
L 303.000642 255.620147 
L 301.636547 54.175268 
L 300.272452 185.640396 
L 298.908358 121.207813 
L 297.544263 188.194738 
L 296.180168 189.479315 
L 294.816073 185.867778 
L 293.451979 67.249845 
L 292.087884 229.906146 
L 290.723789 266.670052 
L 289.359694 80.241278 
L 287.9956 114.481275 
L 286.631505 91.483157 
L 285.26741 212.917154 
L 283.903316 146.900081 
L 282.539221 192.945124 
L 281.175126 123.930074 
L 279.811031 214.054782 
L 278.446937 93.925152 
L 277.082842 106.660566 
L 275.718747 216.500061 
L 274.354652 214.387402 
L 272.990558 203.69395 
L 271.626463 92.631069 
L 270.262368 59.108407 
L 268.898273 268.914294 
L 267.534179 62.012865 
L 266.170084 111.005241 
L 264.805989 102.568001 
L 263.441895 126.055493 
L 262.0778 175.638717 
L 260.713705 263.04801 
L 259.34961 268.820263 
L 257.985516 64.412664 
L 256.621421 261.519138 
L 255.257326 97.195943 
L 253.893231 155.079978 
L 252.529137 208.80904 
L 251.165042 144.527974 
L 249.800947 144.098137 
L 248.436853 141.638977 
L 247.072758 97.810539 
L 245.708663 134.378106 
L 244.344568 143.556085 
L 242.980474 221.038486 
L 241.616379 71.242039 
L 240.252284 267.31651 
L 238.888189 231.647167 
L 237.524095 177.858315 
L 236.16 99.834167 
L 234.795905 98.538 
L 233.431811 141.661057 
L 232.067716 72.60516 
L 230.703621 228.347006 
L 229.339526 79.212431 
L 227.975432 85.770826 
L 226.611337 207.475922 
L 225.247242 138.155426 
L 223.883147 105.230845 
L 222.519053 95.502936 
L 221.154958 145.824156 
L 219.790863 143.356391 
L 218.426769 233.416357 
L 217.062674 56.894655 
L 215.698579 280.919393 
L 214.334484 154.52768 
L 212.97039 271.404271 
L 211.606295 211.361528 
L 210.2422 197.095764 
L 208.878105 79.504828 
L 207.514011 113.211523 
L 206.149916 183.647038 
L 204.785821 104.377222 
L 203.421727 67.533127 
L 202.057632 251.60622 
L 200.693537 243.011473 
L 199.329442 97.977337 
L 197.965348 98.806702 
L 196.601253 127.950495 
L 195.237158 274.346984 
L 193.873063 239.586655 
L 192.508969 150.779709 
L 191.144874 151.464237 
L 189.780779 215.683908 
L 188.416684 86.022784 
L 187.05259 111.612792 
L 185.688495 227.350205 
L 184.3244 187.149677 
L 182.960306 109.009463 
L 181.596211 116.968623 
L 180.232116 267.747873 
L 178.868021 120.711972 
L 177.503927 99.823111 
L 176.139832 185.953371 
L 174.775737 67.9604 
L 173.411642 269.688097 
L 172.047548 129.836519 
L 170.683453 162.277283 
L 169.319358 196.767756 
L 167.955264 64.851701 
L 166.591169 228.614073 
L 165.227074 104.927349 
L 163.862979 90.828535 
L 162.498885 100.910975 
L 161.13479 247.819627 
L 159.770695 239.958068 
L 158.4066 96.69625 
L 157.042506 279.437394 
L 155.678411 83.183206 
L 154.314316 119.220689 
L 152.950222 135.343006 
L 151.586127 191.416621 
L 150.222032 151.201132 
L 148.857937 129.896161 
L 147.493843 250.78334 
L 146.129748 95.455265 
L 144.765653 235.974866 
L 143.401558 131.48597 
L 142.037464 143.807551 
L 140.673369 278.752193 
L 139.309274 168.121011 
L 137.94518 245.901901 
L 136.581085 89.643905 
L 135.21699 116.010138 
L 133.852895 146.830345 
L 132.488801 153.211713 
L 131.124706 173.989117 
L 129.760611 145.628573 
L 128.396516 93.912404 
L 127.032422 122.010676 
L 125.668327 154.243147 
L 124.304232 136.585474 
L 122.940138 71.855228 
L 121.576043 226.649891 
L 120.211948 107.863949 
L 118.847853 134.780327 
L 117.483759 265.766504 
L 116.119664 254.637738 
L 114.755569 180.461293 
L 113.391474 122.341878 
L 112.02738 232.244076 
L 110.663285 265.097239 
L 109.29919 131.720862 
L 107.935095 133.235531 
L 106.571001 239.392531 
L 105.206906 127.374321 
L 103.842811 98.474144 
L 102.478717 144.546144 
L 101.114622 89.82646 
L 99.750527 214.258282 
L 98.386432 134.14935 
L 97.022338 126.994352 
L 95.658243 87.194641 
L 94.294148 120.633896 
L 92.930053 183.438708 
L 91.565959 140.2084 
L 90.201864 200.113499 
L 88.837769 101.830243 
L 87.473675 258.610334 
L 86.10958 103.483316 
L 84.745485 125.512772 
L 83.38139 220.627201 
L 82.017296 200.086576 
L 80.653201 75.191383 
L 79.289106 101.671691 
L 77.925011 90.985617 
L 76.560917 222.382168 
L 75.196822 193.209796 
L 73.832727 158.808759 
z
" style="fill:#008000;fill-opacity:0.4;"/>
   </g>
   <g id="matplotlib.axis_1">
    <g id="xtick_1">
     <g id="line2d_1">
      <defs>
       <path d="M 0 0 
L 0 3.5 
" id="m1645243d72" style="stroke:#000000;stroke-width:0.8;"/>
      </defs>
      <g>
       <use style="stroke:#000000;stroke-width:0.8;" x="73.832727" xlink:href="#m1645243d72" y="307.584"/>
      </g>
     </g>
     <g id="text_1">
      <!-- 0.0 -->
      <defs>
       <path d="M 31.78125 66.40625 
Q 24.171875 66.40625 20.328125 58.90625 
Q 16.5 51.421875 16.5 36.375 
Q 16.5 21.390625 20.328125 13.890625 
Q 24.171875 6.390625 31.78125 6.390625 
Q 39.453125 6.390625 43.28125 13.890625 
Q 47.125 21.390625 47.125 36.375 
Q 47.125 51.421875 43.28125 58.90625 
Q 39.453125 66.40625 31.78125 66.40625 
z
M 31.78125 74.21875 
Q 44.046875 74.21875 50.515625 64.515625 
Q 56.984375 54.828125 56.984375 36.375 
Q 56.984375 17.96875 50.515625 8.265625 
Q 44.046875 -1.421875 31.78125 -1.421875 
Q 19.53125 -1.421875 13.0625 8.265625 
Q 6.59375 17.96875 6.59375 36.375 
Q 6.59375 54.828125 13.0625 64.515625 
Q 19.53125 74.21875 31.78125 74.21875 
z
" id="DejaVuSans-48"/>
       <path d="M 10.6875 12.40625 
L 21 12.40625 
L 21 0 
L 10.6875 0 
z
" id="DejaVuSans-46"/>
      </defs>
      <g transform="translate(65.881165 322.182437)scale(0.1 -0.1)">
       <use xlink:href="#DejaVuSans-48"/>
       <use x="63.623047" xlink:href="#DejaVuSans-46"/>
       <use x="95.410156" xlink:href="#DejaVuSans-48"/>
      </g>
     </g>
    </g>
    <g id="xtick_2">
     <g id="line2d_2">
      <g>
       <use style="stroke:#000000;stroke-width:0.8;" x="138.763636" xlink:href="#m1645243d72" y="307.584"/>
      </g>
     </g>
     <g id="text_2">
      <!-- 0.2 -->
      <defs>
       <path d="M 19.1875 8.296875 
L 53.609375 8.296875 
L 53.609375 0 
L 7.328125 0 
L 7.328125 8.296875 
Q 12.9375 14.109375 22.625 23.890625 
Q 32.328125 33.6875 34.8125 36.53125 
Q 39.546875 41.84375 41.421875 45.53125 
Q 43.3125 49.21875 43.3125 52.78125 
Q 43.3125 58.59375 39.234375 62.25 
Q 35.15625 65.921875 28.609375 65.921875 
Q 23.96875 65.921875 18.8125 64.3125 
Q 13.671875 62.703125 7.8125 59.421875 
L 7.8125 69.390625 
Q 13.765625 71.78125 18.9375 73 
Q 24.125 74.21875 28.421875 74.21875 
Q 39.75 74.21875 46.484375 68.546875 
Q 53.21875 62.890625 53.21875 53.421875 
Q 53.21875 48.921875 51.53125 44.890625 
Q 49.859375 40.875 45.40625 35.40625 
Q 44.1875 33.984375 37.640625 27.21875 
Q 31.109375 20.453125 19.1875 8.296875 
z
" id="DejaVuSans-50"/>
      </defs>
      <g transform="translate(130.812074 322.182437)scale(0.1 -0.1)">
       <use xlink:href="#DejaVuSans-48"/>
       <use x="63.623047" xlink:href="#DejaVuSans-46"/>
       <use x="95.410156" xlink:href="#DejaVuSans-50"/>
      </g>
     </g>
    </g>
    <g id="xtick_3">
     <g id="line2d_3">
      <g>
       <use style="stroke:#000000;stroke-width:0.8;" x="203.694545" xlink:href="#m1645243d72" y="307.584"/>
      </g>
     </g>
     <g id="text_3">
      <!-- 0.4 -->
      <defs>
       <path d="M 37.796875 64.3125 
L 12.890625 25.390625 
L 37.796875 25.390625 
z
M 35.203125 72.90625 
L 47.609375 72.90625 
L 47.609375 25.390625 
L 58.015625 25.390625 
L 58.015625 17.1875 
L 47.609375 17.1875 
L 47.609375 0 
L 37.796875 0 
L 37.796875 17.1875 
L 4.890625 17.1875 
L 4.890625 26.703125 
z
" id="DejaVuSans-52"/>
      </defs>
      <g transform="translate(195.742983 322.182437)scale(0.1 -0.1)">
       <use xlink:href="#DejaVuSans-48"/>
       <use x="63.623047" xlink:href="#DejaVuSans-46"/>
       <use x="95.410156" xlink:href="#DejaVuSans-52"/>
      </g>
     </g>
    </g>
    <g id="xtick_4">
     <g id="line2d_4">
      <g>
       <use style="stroke:#000000;stroke-width:0.8;" x="268.625455" xlink:href="#m1645243d72" y="307.584"/>
      </g>
     </g>
     <g id="text_4">
      <!-- 0.6 -->
      <defs>
       <path d="M 33.015625 40.375 
Q 26.375 40.375 22.484375 35.828125 
Q 18.609375 31.296875 18.609375 23.390625 
Q 18.609375 15.53125 22.484375 10.953125 
Q 26.375 6.390625 33.015625 6.390625 
Q 39.65625 6.390625 43.53125 10.953125 
Q 47.40625 15.53125 47.40625 23.390625 
Q 47.40625 31.296875 43.53125 35.828125 
Q 39.65625 40.375 33.015625 40.375 
z
M 52.59375 71.296875 
L 52.59375 62.3125 
Q 48.875 64.0625 45.09375 64.984375 
Q 41.3125 65.921875 37.59375 65.921875 
Q 27.828125 65.921875 22.671875 59.328125 
Q 17.53125 52.734375 16.796875 39.40625 
Q 19.671875 43.65625 24.015625 45.921875 
Q 28.375 48.1875 33.59375 48.1875 
Q 44.578125 48.1875 50.953125 41.515625 
Q 57.328125 34.859375 57.328125 23.390625 
Q 57.328125 12.15625 50.6875 5.359375 
Q 44.046875 -1.421875 33.015625 -1.421875 
Q 20.359375 -1.421875 13.671875 8.265625 
Q 6.984375 17.96875 6.984375 36.375 
Q 6.984375 53.65625 15.1875 63.9375 
Q 23.390625 74.21875 37.203125 74.21875 
Q 40.921875 74.21875 44.703125 73.484375 
Q 48.484375 72.75 52.59375 71.296875 
z
" id="DejaVuSans-54"/>
      </defs>
      <g transform="translate(260.673892 322.182437)scale(0.1 -0.1)">
       <use xlink:href="#DejaVuSans-48"/>
       <use x="63.623047" xlink:href="#DejaVuSans-46"/>
       <use x="95.410156" xlink:href="#DejaVuSans-54"/>
      </g>
     </g>
    </g>
    <g id="xtick_5">
     <g id="line2d_5">
      <g>
       <use style="stroke:#000000;stroke-width:0.8;" x="333.556364" xlink:href="#m1645243d72" y="307.584"/>
      </g>
     </g>
     <g id="text_5">
      <!-- 0.8 -->
      <defs>
       <path d="M 31.78125 34.625 
Q 24.75 34.625 20.71875 30.859375 
Q 16.703125 27.09375 16.703125 20.515625 
Q 16.703125 13.921875 20.71875 10.15625 
Q 24.75 6.390625 31.78125 6.390625 
Q 38.8125 6.390625 42.859375 10.171875 
Q 46.921875 13.96875 46.921875 20.515625 
Q 46.921875 27.09375 42.890625 30.859375 
Q 38.875 34.625 31.78125 34.625 
z
M 21.921875 38.8125 
Q 15.578125 40.375 12.03125 44.71875 
Q 8.5 49.078125 8.5 55.328125 
Q 8.5 64.0625 14.71875 69.140625 
Q 20.953125 74.21875 31.78125 74.21875 
Q 42.671875 74.21875 48.875 69.140625 
Q 55.078125 64.0625 55.078125 55.328125 
Q 55.078125 49.078125 51.53125 44.71875 
Q 48 40.375 41.703125 38.8125 
Q 48.828125 37.15625 52.796875 32.3125 
Q 56.78125 27.484375 56.78125 20.515625 
Q 56.78125 9.90625 50.3125 4.234375 
Q 43.84375 -1.421875 31.78125 -1.421875 
Q 19.734375 -1.421875 13.25 4.234375 
Q 6.78125 9.90625 6.78125 20.515625 
Q 6.78125 27.484375 10.78125 32.3125 
Q 14.796875 37.15625 21.921875 38.8125 
z
M 18.3125 54.390625 
Q 18.3125 48.734375 21.84375 45.5625 
Q 25.390625 42.390625 31.78125 42.390625 
Q 38.140625 42.390625 41.71875 45.5625 
Q 45.3125 48.734375 45.3125 54.390625 
Q 45.3125 60.0625 41.71875 63.234375 
Q 38.140625 66.40625 31.78125 66.40625 
Q 25.390625 66.40625 21.84375 63.234375 
Q 18.3125 60.0625 18.3125 54.390625 
z
" id="DejaVuSans-56"/>
      </defs>
      <g transform="translate(325.604801 322.182437)scale(0.1 -0.1)">
       <use xlink:href="#DejaVuSans-48"/>
       <use x="63.623047" xlink:href="#DejaVuSans-46"/>
       <use x="95.410156" xlink:href="#DejaVuSans-56"/>
      </g>
     </g>
    </g>
    <g id="xtick_6">
     <g id="line2d_6">
      <g>
       <use style="stroke:#000000;stroke-width:0.8;" x="398.487273" xlink:href="#m1645243d72" y="307.584"/>
      </g>
     </g>
     <g id="text_6">
      <!-- 1.0 -->
      <defs>
       <path d="M 12.40625 8.296875 
L 28.515625 8.296875 
L 28.515625 63.921875 
L 10.984375 60.40625 
L 10.984375 69.390625 
L 28.421875 72.90625 
L 38.28125 72.90625 
L 38.28125 8.296875 
L 54.390625 8.296875 
L 54.390625 0 
L 12.40625 0 
z
" id="DejaVuSans-49"/>
      </defs>
      <g transform="translate(390.53571 322.182437)scale(0.1 -0.1)">
       <use xlink:href="#DejaVuSans-49"/>
       <use x="63.623047" xlink:href="#DejaVuSans-46"/>
       <use x="95.410156" xlink:href="#DejaVuSans-48"/>
      </g>
     </g>
    </g>
   </g>
   <g id="matplotlib.axis_2">
    <g id="ytick_1">
     <g id="line2d_7">
      <defs>
       <path d="M 0 0 
L -3.5 0 
" id="mdd90b85718" style="stroke:#000000;stroke-width:0.8;"/>
      </defs>
      <g>
       <use style="stroke:#000000;stroke-width:0.8;" x="57.6" xlink:href="#mdd90b85718" y="286.905072"/>
      </g>
     </g>
     <g id="text_7">
      <!-- 0.20 -->
      <g transform="translate(28.334375 290.704291)scale(0.1 -0.1)">
       <use xlink:href="#DejaVuSans-48"/>
       <use x="63.623047" xlink:href="#DejaVuSans-46"/>
       <use x="95.410156" xlink:href="#DejaVuSans-50"/>
       <use x="159.033203" xlink:href="#DejaVuSans-48"/>
      </g>
     </g>
    </g>
    <g id="ytick_2">
     <g id="line2d_8">
      <g>
       <use style="stroke:#000000;stroke-width:0.8;" x="57.6" xlink:href="#mdd90b85718" y="254.931717"/>
      </g>
     </g>
     <g id="text_8">
      <!-- 0.25 -->
      <defs>
       <path d="M 10.796875 72.90625 
L 49.515625 72.90625 
L 49.515625 64.59375 
L 19.828125 64.59375 
L 19.828125 46.734375 
Q 21.96875 47.46875 24.109375 47.828125 
Q 26.265625 48.1875 28.421875 48.1875 
Q 40.625 48.1875 47.75 41.5 
Q 54.890625 34.8125 54.890625 23.390625 
Q 54.890625 11.625 47.5625 5.09375 
Q 40.234375 -1.421875 26.90625 -1.421875 
Q 22.3125 -1.421875 17.546875 -0.640625 
Q 12.796875 0.140625 7.71875 1.703125 
L 7.71875 11.625 
Q 12.109375 9.234375 16.796875 8.0625 
Q 21.484375 6.890625 26.703125 6.890625 
Q 35.15625 6.890625 40.078125 11.328125 
Q 45.015625 15.765625 45.015625 23.390625 
Q 45.015625 31 40.078125 35.4375 
Q 35.15625 39.890625 26.703125 39.890625 
Q 22.75 39.890625 18.8125 39.015625 
Q 14.890625 38.140625 10.796875 36.28125 
z
" id="DejaVuSans-53"/>
      </defs>
      <g transform="translate(28.334375 258.730936)scale(0.1 -0.1)">
       <use xlink:href="#DejaVuSans-48"/>
       <use x="63.623047" xlink:href="#DejaVuSans-46"/>
       <use x="95.410156" xlink:href="#DejaVuSans-50"/>
       <use x="159.033203" xlink:href="#DejaVuSans-53"/>
      </g>
     </g>
    </g>
    <g id="ytick_3">
     <g id="line2d_9">
      <g>
       <use style="stroke:#000000;stroke-width:0.8;" x="57.6" xlink:href="#mdd90b85718" y="222.958361"/>
      </g>
     </g>
     <g id="text_9">
      <!-- 0.30 -->
      <defs>
       <path d="M 40.578125 39.3125 
Q 47.65625 37.796875 51.625 33 
Q 55.609375 28.21875 55.609375 21.1875 
Q 55.609375 10.40625 48.1875 4.484375 
Q 40.765625 -1.421875 27.09375 -1.421875 
Q 22.515625 -1.421875 17.65625 -0.515625 
Q 12.796875 0.390625 7.625 2.203125 
L 7.625 11.71875 
Q 11.71875 9.328125 16.59375 8.109375 
Q 21.484375 6.890625 26.8125 6.890625 
Q 36.078125 6.890625 40.9375 10.546875 
Q 45.796875 14.203125 45.796875 21.1875 
Q 45.796875 27.640625 41.28125 31.265625 
Q 36.765625 34.90625 28.71875 34.90625 
L 20.21875 34.90625 
L 20.21875 43.015625 
L 29.109375 43.015625 
Q 36.375 43.015625 40.234375 45.921875 
Q 44.09375 48.828125 44.09375 54.296875 
Q 44.09375 59.90625 40.109375 62.90625 
Q 36.140625 65.921875 28.71875 65.921875 
Q 24.65625 65.921875 20.015625 65.03125 
Q 15.375 64.15625 9.8125 62.3125 
L 9.8125 71.09375 
Q 15.4375 72.65625 20.34375 73.4375 
Q 25.25 74.21875 29.59375 74.21875 
Q 40.828125 74.21875 47.359375 69.109375 
Q 53.90625 64.015625 53.90625 55.328125 
Q 53.90625 49.265625 50.4375 45.09375 
Q 46.96875 40.921875 40.578125 39.3125 
z
" id="DejaVuSans-51"/>
      </defs>
      <g transform="translate(28.334375 226.75758)scale(0.1 -0.1)">
       <use xlink:href="#DejaVuSans-48"/>
       <use x="63.623047" xlink:href="#DejaVuSans-46"/>
       <use x="95.410156" xlink:href="#DejaVuSans-51"/>
       <use x="159.033203" xlink:href="#DejaVuSans-48"/>
      </g>
     </g>
    </g>
    <g id="ytick_4">
     <g id="line2d_10">
      <g>
       <use style="stroke:#000000;stroke-width:0.8;" x="57.6" xlink:href="#mdd90b85718" y="190.985006"/>
      </g>
     </g>
     <g id="text_10">
      <!-- 0.35 -->
      <g transform="translate(28.334375 194.784225)scale(0.1 -0.1)">
       <use xlink:href="#DejaVuSans-48"/>
       <use x="63.623047" xlink:href="#DejaVuSans-46"/>
       <use x="95.410156" xlink:href="#DejaVuSans-51"/>
       <use x="159.033203" xlink:href="#DejaVuSans-53"/>
      </g>
     </g>
    </g>
    <g id="ytick_5">
     <g id="line2d_11">
      <g>
       <use style="stroke:#000000;stroke-width:0.8;" x="57.6" xlink:href="#mdd90b85718" y="159.01165"/>
      </g>
     </g>
     <g id="text_11">
      <!-- 0.40 -->
      <g transform="translate(28.334375 162.810869)scale(0.1 -0.1)">
       <use xlink:href="#DejaVuSans-48"/>
       <use x="63.623047" xlink:href="#DejaVuSans-46"/>
       <use x="95.410156" xlink:href="#DejaVuSans-52"/>
       <use x="159.033203" xlink:href="#DejaVuSans-48"/>
      </g>
     </g>
    </g>
    <g id="ytick_6">
     <g id="line2d_12">
      <g>
       <use style="stroke:#000000;stroke-width:0.8;" x="57.6" xlink:href="#mdd90b85718" y="127.038295"/>
      </g>
     </g>
     <g id="text_12">
      <!-- 0.45 -->
      <g transform="translate(28.334375 130.837514)scale(0.1 -0.1)">
       <use xlink:href="#DejaVuSans-48"/>
       <use x="63.623047" xlink:href="#DejaVuSans-46"/>
       <use x="95.410156" xlink:href="#DejaVuSans-52"/>
       <use x="159.033203" xlink:href="#DejaVuSans-53"/>
      </g>
     </g>
    </g>
    <g id="ytick_7">
     <g id="line2d_13">
      <g>
       <use style="stroke:#000000;stroke-width:0.8;" x="57.6" xlink:href="#mdd90b85718" y="95.064939"/>
      </g>
     </g>
     <g id="text_13">
      <!-- 0.50 -->
      <g transform="translate(28.334375 98.864158)scale(0.1 -0.1)">
       <use xlink:href="#DejaVuSans-48"/>
       <use x="63.623047" xlink:href="#DejaVuSans-46"/>
       <use x="95.410156" xlink:href="#DejaVuSans-53"/>
       <use x="159.033203" xlink:href="#DejaVuSans-48"/>
      </g>
     </g>
    </g>
    <g id="ytick_8">
     <g id="line2d_14">
      <g>
       <use style="stroke:#000000;stroke-width:0.8;" x="57.6" xlink:href="#mdd90b85718" y="63.091584"/>
      </g>
     </g>
     <g id="text_14">
      <!-- 0.55 -->
      <g transform="translate(28.334375 66.890802)scale(0.1 -0.1)">
       <use xlink:href="#DejaVuSans-48"/>
       <use x="63.623047" xlink:href="#DejaVuSans-46"/>
       <use x="95.410156" xlink:href="#DejaVuSans-53"/>
       <use x="159.033203" xlink:href="#DejaVuSans-53"/>
      </g>
     </g>
    </g>
   </g>
   <g id="line2d_15">
    <path clip-path="url(#p9e3222a68c)" d="M 73.832727 163.88375 
L 76.560917 227.412889 
L 77.925011 88.38059 
L 79.289106 103.52445 
L 80.653201 83.211777 
L 82.017296 204.425326 
L 83.38139 219.455361 
L 84.745485 136.617512 
L 86.10958 103.328133 
L 87.473675 257.151307 
L 88.837769 100.662195 
L 90.201864 200.465106 
L 91.565959 143.636943 
L 92.930053 194.884476 
L 94.294148 117.819737 
L 95.658243 90.142321 
L 97.022338 128.478375 
L 98.386432 137.043397 
L 99.750527 219.52762 
L 101.114622 89.575114 
L 102.478717 144.532836 
L 103.842811 103.15164 
L 105.206906 131.036243 
L 106.571001 245.905639 
L 107.935095 143.944526 
L 109.29919 140.866132 
L 110.663285 278.574095 
L 112.02738 237.732609 
L 113.391474 123.309562 
L 114.755569 186.907764 
L 116.119664 268.913665 
L 117.483759 266.144773 
L 118.847853 131.799767 
L 120.211948 109.672286 
L 121.576043 224.895947 
L 122.940138 70.058578 
L 124.304232 145.78811 
L 125.668327 154.87238 
L 127.032422 124.830854 
L 128.396516 104.495161 
L 129.760611 143.45981 
L 131.124706 176.077109 
L 132.488801 157.723764 
L 133.852895 143.708563 
L 135.21699 125.582868 
L 136.581085 97.957888 
L 137.94518 249.177792 
L 139.309274 177.815181 
L 140.673369 295.353072 
L 142.037464 153.093382 
L 143.401558 131.401379 
L 144.765653 248.219231 
L 146.129748 94.649925 
L 147.493843 248.288933 
L 148.857937 131.102748 
L 150.222032 151.630921 
L 151.586127 198.966195 
L 152.950222 139.585918 
L 154.314316 121.489639 
L 155.678411 87.097179 
L 157.042506 295.488 
L 158.4066 99.002778 
L 159.770695 244.393938 
L 161.13479 259.926595 
L 162.498885 100.186431 
L 163.862979 94.718988 
L 165.227074 103.613336 
L 166.591169 235.01999 
L 167.955264 71.577312 
L 169.319358 205.339764 
L 170.683453 170.570018 
L 172.047548 127.714851 
L 173.411642 280.440699 
L 174.775737 75.194778 
L 176.139832 188.615141 
L 177.503927 100.709515 
L 178.868021 132.194958 
L 180.232116 266.230461 
L 181.596211 116.863094 
L 182.960306 115.59631 
L 184.3244 195.725376 
L 185.688495 226.572629 
L 187.05259 113.757202 
L 188.416684 84.63587 
L 189.780779 216.843777 
L 191.144874 152.907937 
L 192.508969 151.469775 
L 193.873063 243.123957 
L 195.237158 278.883597 
L 196.601253 131.802325 
L 197.965348 100.206255 
L 199.329442 99.592366 
L 200.693537 240.387037 
L 202.057632 264.686148 
L 203.421727 68.759181 
L 204.785821 103.131817 
L 206.149916 188.7603 
L 207.514011 112.330551 
L 208.878105 79.005362 
L 210.2422 193.995617 
L 211.606295 212.948143 
L 212.97039 281.252823 
L 214.334484 152.793472 
L 215.698579 291.076956 
L 217.062674 55.257472 
L 218.426769 232.357249 
L 219.790863 144.963837 
L 221.154958 151.348916 
L 222.519053 98.156763 
L 223.883147 115.109675 
L 225.247242 146.366828 
L 226.611337 208.989842 
L 227.975432 83.571157 
L 229.339526 76.64381 
L 230.703621 238.951434 
L 232.067716 71.496739 
L 233.431811 146.375141 
L 234.795905 99.747117 
L 236.16 101.127087 
L 237.524095 178.815307 
L 238.888189 237.423747 
L 240.252284 269.60365 
L 241.616379 76.325356 
L 242.980474 221.08856 
L 244.344568 147.075357 
L 245.708663 144.463134 
L 247.072758 98.01608 
L 248.436853 143.742455 
L 249.800947 146.202485 
L 251.165042 146.429495 
L 252.529137 217.510102 
L 253.893231 153.68425 
L 255.257326 97.102921 
L 256.621421 274.783973 
L 257.985516 64.901276 
L 259.34961 284.41243 
L 260.713705 261.02456 
L 262.0778 182.943067 
L 263.441895 124.324396 
L 264.805989 102.562052 
L 266.170084 121.141129 
L 267.534179 60.313099 
L 268.898273 285.604396 
L 270.262368 62.837715 
L 271.626463 93.734848 
L 272.990558 208.570991 
L 274.354652 223.595271 
L 275.718747 221.972943 
L 277.082842 108.159947 
L 278.446937 94.594931 
L 279.811031 224.714338 
L 281.175126 126.719201 
L 282.539221 201.654515 
L 283.903316 150.217059 
L 285.26741 224.322984 
L 286.631505 91.231973 
L 287.9956 113.798768 
L 289.359694 87.678455 
L 290.723789 273.942435 
L 292.087884 240.593585 
L 293.451979 66.801132 
L 294.816073 197.128366 
L 296.180168 199.597988 
L 297.544263 193.891384 
L 298.908358 124.539897 
L 300.272452 192.244756 
L 301.636547 53.568 
L 303.000642 270.56349 
L 304.364736 152.036343 
L 305.728831 219.959261 
L 307.092926 89.119174 
L 308.457021 205.803377 
L 309.821115 225.293056 
L 311.18521 233.618278 
L 312.549305 147.923291 
L 313.9134 133.730318 
L 315.277494 92.484689 
L 316.641589 146.24405 
L 318.005684 287.29195 
L 319.369778 181.51194 
L 320.733873 126.866278 
L 322.097968 99.1441 
L 323.462063 236.988909 
L 324.826157 80.086701 
L 326.190252 120.026538 
L 327.554347 134.355077 
L 328.918442 150.710728 
L 330.282536 202.267764 
L 331.646631 197.712839 
L 333.010726 124.678661 
L 334.37482 218.546678 
L 335.738915 86.627171 
L 337.10301 166.334828 
L 338.467105 219.498205 
L 339.831199 268.124563 
L 341.195294 98.690718 
L 342.559389 224.477735 
L 343.923484 125.129485 
L 345.287578 92.611943 
L 348.015768 226.386545 
L 349.379862 131.260696 
L 350.743957 249.033272 
L 352.108052 131.326561 
L 353.472147 119.512406 
L 354.836241 203.646455 
L 356.200336 202.837529 
L 357.564431 75.526022 
L 358.928526 102.390674 
L 360.29262 175.536759 
L 361.656715 125.408293 
L 363.02081 116.813216 
L 364.384905 184.378671 
L 365.748999 222.036889 
L 367.113094 100.321998 
L 368.477189 179.894088 
L 369.841283 73.106278 
L 371.205378 235.850018 
L 372.569473 164.691397 
L 373.933568 209.022455 
L 375.297662 107.800566 
L 376.661757 221.173609 
L 378.025852 171.753672 
L 379.389947 159.445209 
L 380.754041 210.855167 
L 382.118136 214.523151 
L 383.482231 88.374834 
L 384.846325 112.88369 
L 386.21042 99.954305 
L 387.574515 171.386618 
L 388.93861 181.258072 
L 390.302704 131.476197 
L 391.666799 99.633932 
L 393.030894 143.218092 
L 394.394989 246.416573 
L 395.759083 99.290538 
L 397.123178 211.923717 
L 398.487273 97.058798 
L 398.487273 97.058798 
" style="fill:none;stroke:#1f77b4;stroke-linecap:square;stroke-width:1.5;"/>
   </g>
   <g id="line2d_16">
    <path clip-path="url(#p9e3222a68c)" d="M 73.832727 162.287385 
L 75.196822 196.749997 
L 76.560917 225.494406 
L 77.925011 92.613282 
L 79.289106 103.441629 
L 80.653201 80.013468 
L 82.017296 204.852947 
L 83.38139 221.371562 
L 84.745485 135.777963 
L 86.10958 104.943604 
L 87.473675 259.181644 
L 88.837769 103.189846 
L 90.201864 201.822886 
L 91.565959 141.655165 
L 92.930053 194.974126 
L 94.294148 122.36971 
L 95.658243 89.307506 
L 97.022338 127.9822 
L 98.386432 135.420667 
L 99.750527 220.410081 
L 101.114622 91.713657 
L 102.478717 145.408185 
L 103.842811 100.36347 
L 105.206906 129.181804 
L 106.571001 243.496106 
L 107.935095 143.651126 
L 109.29919 138.902744 
L 110.663285 272.767859 
L 112.02738 235.563026 
L 113.391474 123.3397 
L 114.755569 188.203382 
L 116.119664 263.293557 
L 117.483759 267.19591 
L 118.847853 136.354768 
L 120.211948 109.906227 
L 121.576043 228.441739 
L 122.940138 74.364967 
L 124.304232 144.286664 
L 125.668327 156.516568 
L 127.032422 124.357818 
L 128.396516 101.903723 
L 129.760611 146.533007 
L 131.124706 177.107642 
L 132.488801 156.474106 
L 133.852895 148.138187 
L 135.21699 124.257372 
L 136.581085 95.085859 
L 137.94518 248.683562 
L 139.309274 178.404784 
L 140.673369 287.156015 
L 142.037464 153.326445 
L 143.401558 132.421347 
L 144.765653 244.704584 
L 146.129748 96.890671 
L 147.493843 251.891728 
L 148.857937 130.836793 
L 150.222032 152.038225 
L 151.586127 198.947113 
L 152.950222 137.281893 
L 154.314316 120.473829 
L 155.678411 85.242281 
L 157.042506 287.613326 
L 158.4066 98.267122 
L 159.770695 243.029255 
L 161.13479 255.562185 
L 162.498885 103.1764 
L 163.862979 92.594713 
L 165.227074 106.209323 
L 166.591169 232.626256 
L 167.955264 69.080609 
L 169.319358 203.96777 
L 170.683453 171.41533 
L 172.047548 131.834427 
L 173.411642 275.997472 
L 174.775737 72.364748 
L 176.139832 189.426322 
L 177.503927 101.897207 
L 178.868021 130.819523 
L 180.232116 268.556706 
L 181.596211 119.203294 
L 182.960306 111.994577 
L 184.3244 196.006236 
L 185.688495 229.777769 
L 187.05259 113.852702 
L 188.416684 87.834361 
L 189.780779 216.216279 
L 191.144874 153.533028 
L 192.508969 151.621464 
L 193.873063 242.251988 
L 195.237158 277.739033 
L 196.601253 132.909293 
L 197.965348 100.188179 
L 199.329442 99.375387 
L 200.693537 244.163273 
L 202.057632 259.625722 
L 203.421727 70.337273 
L 204.785821 105.664695 
L 206.149916 187.653321 
L 207.514011 115.438515 
L 208.878105 81.727873 
L 210.2422 198.47106 
L 211.606295 213.438169 
L 212.97039 277.239261 
L 214.334484 155.311909 
L 215.698579 286.58791 
L 217.062674 60.322777 
L 218.426769 234.001132 
L 219.790863 144.3145 
L 221.154958 148.706471 
L 222.519053 97.613505 
L 223.883147 113.004464 
L 225.247242 143.434533 
L 226.611337 210.820876 
L 227.975432 87.560775 
L 229.339526 81.404136 
L 230.703621 235.871134 
L 232.067716 75.061606 
L 233.431811 143.753923 
L 234.795905 100.496589 
L 236.16 101.66922 
L 237.524095 180.00398 
L 238.888189 235.13019 
L 240.252284 269.637903 
L 241.616379 74.077352 
L 242.980474 223.807362 
L 244.344568 146.502476 
L 245.708663 144.090716 
L 247.072758 99.232388 
L 248.436853 145.3325 
L 249.800947 145.074759 
L 251.165042 145.448953 
L 252.529137 216.316957 
L 255.257326 98.651727 
L 256.621421 269.252587 
L 257.985516 67.373535 
L 259.34961 277.243549 
L 260.713705 263.867742 
L 262.0778 180.474944 
L 263.441895 128.12966 
L 264.805989 103.999992 
L 266.170084 119.361014 
L 267.534179 65.104597 
L 268.898273 277.799503 
L 270.262368 62.558655 
L 271.626463 94.139246 
L 272.990558 208.334022 
L 274.354652 221.957798 
L 275.718747 220.444097 
L 277.082842 108.932465 
L 278.446937 95.562128 
L 279.811031 223.045689 
L 281.175126 126.357473 
L 282.539221 201.674456 
L 283.903316 149.88588 
L 285.26741 222.895291 
L 286.631505 93.04372 
L 287.9956 115.653889 
L 289.359694 84.625875 
L 290.723789 271.445663 
L 292.087884 237.291164 
L 293.451979 70.0548 
L 294.816073 196.919401 
L 296.180168 199.34526 
L 297.544263 194.825634 
L 298.908358 122.967206 
L 300.272452 193.557432 
L 301.636547 57.819156 
L 303.000642 264.677096 
L 304.364736 151.628665 
L 305.728831 218.781696 
L 307.092926 91.270184 
L 308.457021 207.142996 
L 309.821115 226.671321 
L 311.18521 237.447256 
L 312.549305 145.264081 
L 313.9134 135.146062 
L 315.277494 89.434538 
L 316.641589 150.547619 
L 318.005684 279.34509 
L 319.369778 183.138452 
L 320.733873 125.482373 
L 322.097968 97.934178 
L 323.462063 240.265592 
L 324.826157 83.506228 
L 326.190252 116.405082 
L 327.554347 135.698885 
L 328.918442 150.588927 
L 330.282536 202.841703 
L 331.646631 198.320088 
L 333.010726 126.454868 
L 334.37482 223.017457 
L 335.738915 90.183417 
L 337.10301 166.932045 
L 338.467105 217.768129 
L 339.831199 262.435876 
L 341.195294 99.091851 
L 342.559389 224.24644 
L 343.923484 122.334093 
L 345.287578 93.786673 
L 348.015768 224.534485 
L 349.379862 130.767156 
L 350.743957 245.609068 
L 352.108052 129.446563 
L 353.472147 123.338122 
L 354.836241 203.543532 
L 356.200336 204.641065 
L 357.564431 79.897341 
L 358.928526 101.573956 
L 360.29262 176.696072 
L 361.656715 122.221375 
L 363.02081 116.980316 
L 364.384905 182.992638 
L 365.748999 221.00201 
L 367.113094 102.962039 
L 368.477189 181.686226 
L 369.841283 78.159984 
L 371.205378 238.439165 
L 372.569473 164.621029 
L 373.933568 212.998334 
L 375.297662 107.047094 
L 376.661757 220.86431 
L 378.025852 172.336434 
L 379.389947 162.16601 
L 380.754041 211.686278 
L 382.118136 216.996247 
L 383.482231 90.428748 
L 384.846325 110.64195 
L 386.21042 98.855231 
L 387.574515 171.135786 
L 388.93861 179.251742 
L 390.302704 133.25903 
L 391.666799 96.780882 
L 393.030894 141.334448 
L 394.394989 243.247324 
L 395.759083 102.123123 
L 397.123178 216.365264 
L 398.487273 98.003705 
L 398.487273 98.003705 
" style="fill:none;stroke:#ff7f0e;stroke-linecap:square;stroke-width:1.5;"/>
   </g>
   <g id="line2d_17">
    <path clip-path="url(#p9e3222a68c)" d="M 73.832727 177.290114 
L 75.196822 211.483159 
L 76.560917 227.191383 
L 77.925011 93.440089 
L 79.289106 103.620135 
L 80.653201 81.321256 
L 82.017296 206.557769 
L 83.38139 225.293621 
L 84.745485 137.849934 
L 86.10958 105.191136 
L 87.473675 261.5757 
L 88.837769 103.770606 
L 90.201864 209.344079 
L 91.565959 146.041091 
L 92.930053 197.398165 
L 94.294148 125.986288 
L 95.658243 93.972653 
L 97.022338 129.016842 
L 98.386432 138.736403 
L 99.750527 222.578623 
L 101.114622 95.096216 
L 102.478717 146.257855 
L 103.842811 100.553728 
L 105.206906 136.495577 
L 106.571001 245.566057 
L 107.935095 145.662745 
L 109.29919 140.372621 
L 110.663285 275.972634 
L 112.02738 237.426659 
L 113.391474 124.038579 
L 114.755569 190.041274 
L 116.119664 266.48674 
L 117.483759 269.730068 
L 118.847853 140.444118 
L 120.211948 118.090644 
L 121.576043 237.242146 
L 122.940138 76.345847 
L 124.304232 145.825191 
L 125.668327 166.93372 
L 128.396516 103.800765 
L 131.124706 190.836506 
L 133.852895 151.469845 
L 135.21699 125.960182 
L 136.581085 96.302609 
L 137.94518 250.652687 
L 139.309274 180.35997 
L 140.673369 290.861614 
L 142.037464 155.139836 
L 143.401558 133.140837 
L 144.765653 247.568872 
L 146.129748 97.336885 
L 147.493843 256.763019 
L 148.857937 131.681798 
L 150.222032 152.936063 
L 151.586127 200.920619 
L 152.950222 145.371252 
L 154.314316 123.229453 
L 155.678411 87.346421 
L 157.042506 291.305027 
L 158.4066 100.405978 
L 159.770695 244.936813 
L 161.13479 258.450925 
L 162.498885 109.624541 
L 163.862979 92.639469 
L 165.227074 106.524448 
L 166.591169 234.563421 
L 167.955264 70.132953 
L 169.319358 205.868248 
L 172.047548 139.285637 
L 173.411642 279.089065 
L 174.775737 73.61335 
L 176.139832 204.073365 
L 177.503927 108.716406 
L 178.868021 132.935563 
L 180.232116 271.421216 
L 181.596211 128.427567 
L 182.960306 112.585748 
L 184.3244 198.092326 
L 185.688495 240.813799 
L 187.05259 124.026114 
L 188.416684 89.306545 
L 189.780779 217.47888 
L 191.144874 154.48519 
L 192.508969 152.527324 
L 193.873063 244.074227 
L 195.237158 280.733354 
L 196.601253 134.007514 
L 197.965348 100.378791 
L 199.329442 99.856435 
L 200.693537 249.836738 
L 202.057632 262.600705 
L 203.421727 72.567325 
L 204.785821 105.968789 
L 206.149916 203.79713 
L 207.514011 123.22234 
L 208.878105 84.266947 
L 210.2422 205.443988 
L 211.606295 214.825528 
L 212.97039 280.340388 
L 214.334484 156.411329 
L 215.698579 289.991937 
L 217.062674 61.332265 
L 218.426769 235.505463 
L 219.790863 145.084891 
L 221.154958 161.444084 
L 222.519053 104.23572 
L 223.883147 114.686107 
L 225.247242 144.616996 
L 226.611337 224.599895 
L 227.975432 88.18918 
L 229.339526 83.828958 
L 230.703621 238.330375 
L 232.067716 76.481797 
L 233.431811 152.553613 
L 234.795905 106.569864 
L 236.16 107.004888 
L 237.524095 189.407521 
L 238.888189 237.014085 
L 240.252284 272.23942 
L 241.616379 74.360079 
L 242.980474 235.861018 
L 244.344568 160.864092 
L 245.708663 145.946553 
L 247.072758 100.060687 
L 248.436853 146.361823 
L 251.165042 146.67362 
L 252.529137 218.566774 
L 255.257326 99.567281 
L 256.621421 272.371537 
L 257.985516 69.34219 
L 259.34961 280.685358 
L 260.713705 266.994297 
L 262.0778 181.780379 
L 263.441895 136.053482 
L 264.805989 104.222622 
L 266.170084 121.083484 
L 267.534179 66.749734 
L 268.898273 281.316608 
L 270.262368 62.944338 
L 271.626463 94.713991 
L 272.990558 210.025336 
L 274.354652 224.257754 
L 275.718747 222.160751 
L 277.082842 117.782198 
L 278.446937 98.049664 
L 279.811031 225.63042 
L 281.175126 138.829972 
L 282.539221 203.858915 
L 283.903316 163.827549 
L 285.26741 225.623298 
L 286.631505 93.853897 
L 287.9956 116.166586 
L 289.359694 85.659559 
L 290.723789 274.280473 
L 292.087884 239.731099 
L 293.451979 72.354686 
L 294.816073 199.272511 
L 296.180168 201.632877 
L 297.544263 196.641747 
L 298.908358 130.088879 
L 300.272452 195.478868 
L 301.636547 58.807591 
L 303.000642 267.965863 
L 304.364736 153.314503 
L 305.728831 220.108069 
L 307.092926 91.957411 
L 308.457021 208.933065 
L 309.821115 228.386382 
L 311.18521 245.040554 
L 312.549305 154.678198 
L 313.9134 135.902633 
L 315.277494 90.662302 
L 316.641589 153.280927 
L 318.005684 282.890763 
L 319.369778 190.324757 
L 320.733873 129.214961 
L 322.097968 102.697821 
L 323.462063 242.230165 
L 324.826157 85.75551 
L 327.554347 147.951824 
L 328.918442 152.490605 
L 330.282536 204.575338 
L 331.646631 204.350007 
L 333.010726 127.099833 
L 334.37482 228.690656 
L 335.738915 90.674173 
L 337.10301 168.651458 
L 338.467105 219.897647 
L 339.831199 265.632172 
L 341.195294 104.446439 
L 342.559389 226.527108 
L 343.923484 122.738993 
L 345.287578 95.949106 
L 346.651673 157.51679 
L 348.015768 226.243679 
L 349.379862 144.111616 
L 350.743957 248.592976 
L 352.108052 138.040694 
L 353.472147 124.703886 
L 354.836241 205.576044 
L 356.200336 218.320204 
L 357.564431 81.583981 
L 358.928526 108.598187 
L 360.29262 178.496591 
L 361.656715 123.364949 
L 363.02081 127.570391 
L 364.384905 198.974476 
L 365.748999 223.708703 
L 367.113094 103.465851 
L 368.477189 194.592142 
L 369.841283 79.970154 
L 371.205378 240.070173 
L 372.569473 166.765842 
L 373.933568 221.787758 
L 375.297662 107.6102 
L 376.661757 222.217907 
L 378.025852 174.2335 
L 379.389947 171.232701 
L 380.754041 215.849688 
L 382.118136 219.220367 
L 383.482231 94.80368 
L 384.846325 112.579944 
L 386.21042 99.016203 
L 387.574515 172.850463 
L 388.93861 180.793372 
L 390.302704 134.139727 
L 391.666799 98.612677 
L 393.030894 145.213795 
L 394.394989 246.152525 
L 395.759083 102.520006 
L 397.123178 223.386451 
L 398.487273 99.494018 
L 398.487273 99.494018 
" style="fill:none;stroke:#2ca02c;stroke-linecap:square;stroke-width:1.5;"/>
   </g>
   <g id="line2d_18">
    <path clip-path="url(#p9e3222a68c)" d="M 73.832727 158.808759 
L 75.196822 193.209796 
L 76.560917 222.382168 
L 77.925011 90.985617 
L 79.289106 101.671691 
L 80.653201 75.191383 
L 82.017296 200.086576 
L 83.38139 220.627201 
L 84.745485 125.512772 
L 86.10958 103.483316 
L 87.473675 258.610334 
L 88.837769 101.830243 
L 90.201864 200.113499 
L 91.565959 140.2084 
L 92.930053 183.438708 
L 94.294148 120.633896 
L 95.658243 87.194641 
L 97.022338 126.994352 
L 98.386432 134.14935 
L 99.750527 214.258282 
L 101.114622 89.82646 
L 102.478717 144.546144 
L 103.842811 98.474144 
L 105.206906 127.374321 
L 106.571001 239.392531 
L 107.935095 133.235531 
L 109.29919 131.720862 
L 110.663285 265.097239 
L 112.02738 232.244076 
L 113.391474 122.341878 
L 114.755569 180.461293 
L 116.119664 254.637738 
L 117.483759 265.766504 
L 118.847853 134.780327 
L 120.211948 107.863949 
L 121.576043 226.649891 
L 122.940138 71.855228 
L 124.304232 136.585474 
L 125.668327 154.243147 
L 127.032422 122.010676 
L 128.396516 93.912404 
L 129.760611 145.628573 
L 131.124706 173.989117 
L 132.488801 153.211713 
L 133.852895 146.830345 
L 135.21699 116.010138 
L 136.581085 89.643905 
L 137.94518 245.901901 
L 139.309274 168.121011 
L 140.673369 278.752193 
L 142.037464 143.807551 
L 143.401558 131.48597 
L 144.765653 235.974866 
L 146.129748 95.455265 
L 147.493843 250.78334 
L 148.857937 129.896161 
L 150.222032 151.201132 
L 151.586127 191.416621 
L 152.950222 135.343006 
L 154.314316 119.220689 
L 155.678411 83.183206 
L 157.042506 279.437394 
L 158.4066 96.69625 
L 159.770695 239.958068 
L 161.13479 247.819627 
L 162.498885 100.910975 
L 163.862979 90.828535 
L 165.227074 104.927349 
L 166.591169 228.614073 
L 167.955264 64.851701 
L 169.319358 196.767756 
L 172.047548 129.836519 
L 173.411642 269.688097 
L 174.775737 67.9604 
L 176.139832 185.953371 
L 177.503927 99.823111 
L 178.868021 120.711972 
L 180.232116 267.747873 
L 181.596211 116.968623 
L 182.960306 109.009463 
L 184.3244 187.149677 
L 185.688495 227.350205 
L 187.05259 111.612792 
L 188.416684 86.022784 
L 189.780779 215.683908 
L 191.144874 151.464237 
L 192.508969 150.779709 
L 193.873063 239.586655 
L 195.237158 274.346984 
L 196.601253 127.950495 
L 197.965348 98.806702 
L 199.329442 97.977337 
L 200.693537 243.011473 
L 202.057632 251.60622 
L 203.421727 67.533127 
L 204.785821 104.377222 
L 206.149916 183.647038 
L 207.514011 113.211523 
L 208.878105 79.504828 
L 210.2422 197.095764 
L 211.606295 211.361528 
L 212.97039 271.404271 
L 214.334484 154.52768 
L 215.698579 280.919393 
L 217.062674 56.894655 
L 218.426769 233.416357 
L 219.790863 143.356391 
L 221.154958 145.824156 
L 222.519053 95.502936 
L 223.883147 105.230845 
L 225.247242 138.155426 
L 226.611337 207.475922 
L 227.975432 85.770826 
L 229.339526 79.212431 
L 230.703621 228.347006 
L 232.067716 72.60516 
L 233.431811 141.661057 
L 234.795905 98.538 
L 236.16 99.834167 
L 237.524095 177.858315 
L 238.888189 231.647167 
L 240.252284 267.31651 
L 241.616379 71.242039 
L 242.980474 221.038486 
L 244.344568 143.556085 
L 245.708663 134.378106 
L 247.072758 97.810539 
L 248.436853 141.638977 
L 249.800947 144.098137 
L 251.165042 144.527974 
L 252.529137 208.80904 
L 255.257326 97.195943 
L 256.621421 261.519138 
L 257.985516 64.412664 
L 259.34961 268.820263 
L 260.713705 263.04801 
L 262.0778 175.638717 
L 263.441895 126.055493 
L 264.805989 102.568001 
L 266.170084 111.005241 
L 267.534179 62.012865 
L 268.898273 268.914294 
L 270.262368 59.108407 
L 271.626463 92.631069 
L 272.990558 203.69395 
L 274.354652 214.387402 
L 275.718747 216.500061 
L 277.082842 106.660566 
L 278.446937 93.925152 
L 279.811031 214.054782 
L 281.175126 123.930074 
L 282.539221 192.945124 
L 283.903316 146.900081 
L 285.26741 212.917154 
L 286.631505 91.483157 
L 287.9956 114.481275 
L 289.359694 80.241278 
L 290.723789 266.670052 
L 292.087884 229.906146 
L 293.451979 67.249845 
L 294.816073 185.867778 
L 296.180168 189.479315 
L 297.544263 188.194738 
L 298.908358 121.207813 
L 300.272452 185.640396 
L 301.636547 54.175268 
L 303.000642 255.620147 
L 304.364736 142.930536 
L 305.728831 218.387749 
L 307.092926 89.620859 
L 308.457021 202.237759 
L 309.821115 224.10475 
L 311.18521 235.87496 
L 312.549305 143.068669 
L 313.9134 134.233581 
L 315.277494 84.069117 
L 316.641589 149.349309 
L 318.005684 270.431409 
L 319.369778 181.463541 
L 320.733873 124.122169 
L 322.097968 96.040495 
L 323.462063 240.112224 
L 324.826157 81.412437 
L 326.190252 112.917245 
L 327.554347 133.347596 
L 328.918442 140.601737 
L 330.282536 197.571543 
L 331.646631 196.922755 
L 333.010726 125.461324 
L 334.37482 222.040459 
L 335.738915 88.503462 
L 337.10301 157.742899 
L 338.467105 211.078665 
L 339.831199 253.470614 
L 341.195294 97.213353 
L 342.559389 217.078428 
L 343.923484 121.019014 
L 345.287578 92.125568 
L 346.651673 154.013577 
L 348.015768 221.233995 
L 349.379862 128.19693 
L 350.743957 236.246881 
L 352.108052 127.499294 
L 353.472147 121.999308 
L 354.836241 195.609549 
L 356.200336 201.397661 
L 357.564431 77.720592 
L 358.928526 99.510068 
L 360.29262 167.770317 
L 361.656715 116.891289 
L 363.02081 114.70465 
L 364.384905 178.979206 
L 365.748999 210.923866 
L 367.113094 101.606298 
L 368.477189 178.831868 
L 369.841283 75.87723 
L 371.205378 238.174983 
L 372.569473 152.838424 
L 373.933568 211.234108 
L 375.297662 103.707918 
L 376.661757 220.490267 
L 378.025852 162.209917 
L 379.389947 160.201721 
L 380.754041 210.790522 
L 382.118136 216.551473 
L 383.482231 88.389917 
L 384.846325 102.22159 
L 386.21042 97.427052 
L 387.574515 162.466714 
L 388.93861 172.696111 
L 391.666799 89.385405 
L 393.030894 139.974414 
L 394.394989 234.117788 
L 395.759083 100.765588 
L 397.123178 215.049181 
L 398.487273 96.55013 
L 398.487273 96.55013 
" style="fill:none;stroke:#d62728;stroke-linecap:square;stroke-width:1.5;"/>
   </g>
   <g id="patch_3">
    <path d="M 57.6 307.584 
L 57.6 41.472 
" style="fill:none;stroke:#000000;stroke-linecap:square;stroke-linejoin:miter;stroke-width:0.8;"/>
   </g>
   <g id="patch_4">
    <path d="M 414.72 307.584 
L 414.72 41.472 
" style="fill:none;stroke:#000000;stroke-linecap:square;stroke-linejoin:miter;stroke-width:0.8;"/>
   </g>
   <g id="patch_5">
    <path d="M 57.6 307.584 
L 414.72 307.584 
" style="fill:none;stroke:#000000;stroke-linecap:square;stroke-linejoin:miter;stroke-width:0.8;"/>
   </g>
   <g id="patch_6">
    <path d="M 57.6 41.472 
L 414.72 41.472 
" style="fill:none;stroke:#000000;stroke-linecap:square;stroke-linejoin:miter;stroke-width:0.8;"/>
   </g>
   <g id="text_15">
    <!-- Plot of Train Data vs MCMC Uncertainty  -->
    <defs>
     <path d="M 19.671875 64.796875 
L 19.671875 37.40625 
L 32.078125 37.40625 
Q 38.96875 37.40625 42.71875 40.96875 
Q 46.484375 44.53125 46.484375 51.125 
Q 46.484375 57.671875 42.71875 61.234375 
Q 38.96875 64.796875 32.078125 64.796875 
z
M 9.8125 72.90625 
L 32.078125 72.90625 
Q 44.34375 72.90625 50.609375 67.359375 
Q 56.890625 61.8125 56.890625 51.125 
Q 56.890625 40.328125 50.609375 34.8125 
Q 44.34375 29.296875 32.078125 29.296875 
L 19.671875 29.296875 
L 19.671875 0 
L 9.8125 0 
z
" id="DejaVuSans-80"/>
     <path d="M 9.421875 75.984375 
L 18.40625 75.984375 
L 18.40625 0 
L 9.421875 0 
z
" id="DejaVuSans-108"/>
     <path d="M 30.609375 48.390625 
Q 23.390625 48.390625 19.1875 42.75 
Q 14.984375 37.109375 14.984375 27.296875 
Q 14.984375 17.484375 19.15625 11.84375 
Q 23.34375 6.203125 30.609375 6.203125 
Q 37.796875 6.203125 41.984375 11.859375 
Q 46.1875 17.53125 46.1875 27.296875 
Q 46.1875 37.015625 41.984375 42.703125 
Q 37.796875 48.390625 30.609375 48.390625 
z
M 30.609375 56 
Q 42.328125 56 49.015625 48.375 
Q 55.71875 40.765625 55.71875 27.296875 
Q 55.71875 13.875 49.015625 6.21875 
Q 42.328125 -1.421875 30.609375 -1.421875 
Q 18.84375 -1.421875 12.171875 6.21875 
Q 5.515625 13.875 5.515625 27.296875 
Q 5.515625 40.765625 12.171875 48.375 
Q 18.84375 56 30.609375 56 
z
" id="DejaVuSans-111"/>
     <path d="M 18.3125 70.21875 
L 18.3125 54.6875 
L 36.8125 54.6875 
L 36.8125 47.703125 
L 18.3125 47.703125 
L 18.3125 18.015625 
Q 18.3125 11.328125 20.140625 9.421875 
Q 21.96875 7.515625 27.59375 7.515625 
L 36.8125 7.515625 
L 36.8125 0 
L 27.59375 0 
Q 17.1875 0 13.234375 3.875 
Q 9.28125 7.765625 9.28125 18.015625 
L 9.28125 47.703125 
L 2.6875 47.703125 
L 2.6875 54.6875 
L 9.28125 54.6875 
L 9.28125 70.21875 
z
" id="DejaVuSans-116"/>
     <path id="DejaVuSans-32"/>
     <path d="M 37.109375 75.984375 
L 37.109375 68.5 
L 28.515625 68.5 
Q 23.6875 68.5 21.796875 66.546875 
Q 19.921875 64.59375 19.921875 59.515625 
L 19.921875 54.6875 
L 34.71875 54.6875 
L 34.71875 47.703125 
L 19.921875 47.703125 
L 19.921875 0 
L 10.890625 0 
L 10.890625 47.703125 
L 2.296875 47.703125 
L 2.296875 54.6875 
L 10.890625 54.6875 
L 10.890625 58.5 
Q 10.890625 67.625 15.140625 71.796875 
Q 19.390625 75.984375 28.609375 75.984375 
z
" id="DejaVuSans-102"/>
     <path d="M -0.296875 72.90625 
L 61.375 72.90625 
L 61.375 64.59375 
L 35.5 64.59375 
L 35.5 0 
L 25.59375 0 
L 25.59375 64.59375 
L -0.296875 64.59375 
z
" id="DejaVuSans-84"/>
     <path d="M 41.109375 46.296875 
Q 39.59375 47.171875 37.8125 47.578125 
Q 36.03125 48 33.890625 48 
Q 26.265625 48 22.1875 43.046875 
Q 18.109375 38.09375 18.109375 28.8125 
L 18.109375 0 
L 9.078125 0 
L 9.078125 54.6875 
L 18.109375 54.6875 
L 18.109375 46.1875 
Q 20.953125 51.171875 25.484375 53.578125 
Q 30.03125 56 36.53125 56 
Q 37.453125 56 38.578125 55.875 
Q 39.703125 55.765625 41.0625 55.515625 
z
" id="DejaVuSans-114"/>
     <path d="M 34.28125 27.484375 
Q 23.390625 27.484375 19.1875 25 
Q 14.984375 22.515625 14.984375 16.5 
Q 14.984375 11.71875 18.140625 8.90625 
Q 21.296875 6.109375 26.703125 6.109375 
Q 34.1875 6.109375 38.703125 11.40625 
Q 43.21875 16.703125 43.21875 25.484375 
L 43.21875 27.484375 
z
M 52.203125 31.203125 
L 52.203125 0 
L 43.21875 0 
L 43.21875 8.296875 
Q 40.140625 3.328125 35.546875 0.953125 
Q 30.953125 -1.421875 24.3125 -1.421875 
Q 15.921875 -1.421875 10.953125 3.296875 
Q 6 8.015625 6 15.921875 
Q 6 25.140625 12.171875 29.828125 
Q 18.359375 34.515625 30.609375 34.515625 
L 43.21875 34.515625 
L 43.21875 35.40625 
Q 43.21875 41.609375 39.140625 45 
Q 35.0625 48.390625 27.6875 48.390625 
Q 23 48.390625 18.546875 47.265625 
Q 14.109375 46.140625 10.015625 43.890625 
L 10.015625 52.203125 
Q 14.9375 54.109375 19.578125 55.046875 
Q 24.21875 56 28.609375 56 
Q 40.484375 56 46.34375 49.84375 
Q 52.203125 43.703125 52.203125 31.203125 
z
" id="DejaVuSans-97"/>
     <path d="M 9.421875 54.6875 
L 18.40625 54.6875 
L 18.40625 0 
L 9.421875 0 
z
M 9.421875 75.984375 
L 18.40625 75.984375 
L 18.40625 64.59375 
L 9.421875 64.59375 
z
" id="DejaVuSans-105"/>
     <path d="M 54.890625 33.015625 
L 54.890625 0 
L 45.90625 0 
L 45.90625 32.71875 
Q 45.90625 40.484375 42.875 44.328125 
Q 39.84375 48.1875 33.796875 48.1875 
Q 26.515625 48.1875 22.3125 43.546875 
Q 18.109375 38.921875 18.109375 30.90625 
L 18.109375 0 
L 9.078125 0 
L 9.078125 54.6875 
L 18.109375 54.6875 
L 18.109375 46.1875 
Q 21.34375 51.125 25.703125 53.5625 
Q 30.078125 56 35.796875 56 
Q 45.21875 56 50.046875 50.171875 
Q 54.890625 44.34375 54.890625 33.015625 
z
" id="DejaVuSans-110"/>
     <path d="M 19.671875 64.796875 
L 19.671875 8.109375 
L 31.59375 8.109375 
Q 46.6875 8.109375 53.6875 14.9375 
Q 60.6875 21.78125 60.6875 36.53125 
Q 60.6875 51.171875 53.6875 57.984375 
Q 46.6875 64.796875 31.59375 64.796875 
z
M 9.8125 72.90625 
L 30.078125 72.90625 
Q 51.265625 72.90625 61.171875 64.09375 
Q 71.09375 55.28125 71.09375 36.53125 
Q 71.09375 17.671875 61.125 8.828125 
Q 51.171875 0 30.078125 0 
L 9.8125 0 
z
" id="DejaVuSans-68"/>
     <path d="M 2.984375 54.6875 
L 12.5 54.6875 
L 29.59375 8.796875 
L 46.6875 54.6875 
L 56.203125 54.6875 
L 35.6875 0 
L 23.484375 0 
z
" id="DejaVuSans-118"/>
     <path d="M 44.28125 53.078125 
L 44.28125 44.578125 
Q 40.484375 46.53125 36.375 47.5 
Q 32.28125 48.484375 27.875 48.484375 
Q 21.1875 48.484375 17.84375 46.4375 
Q 14.5 44.390625 14.5 40.28125 
Q 14.5 37.15625 16.890625 35.375 
Q 19.28125 33.59375 26.515625 31.984375 
L 29.59375 31.296875 
Q 39.15625 29.25 43.1875 25.515625 
Q 47.21875 21.78125 47.21875 15.09375 
Q 47.21875 7.46875 41.1875 3.015625 
Q 35.15625 -1.421875 24.609375 -1.421875 
Q 20.21875 -1.421875 15.453125 -0.5625 
Q 10.6875 0.296875 5.421875 2 
L 5.421875 11.28125 
Q 10.40625 8.6875 15.234375 7.390625 
Q 20.0625 6.109375 24.8125 6.109375 
Q 31.15625 6.109375 34.5625 8.28125 
Q 37.984375 10.453125 37.984375 14.40625 
Q 37.984375 18.0625 35.515625 20.015625 
Q 33.0625 21.96875 24.703125 23.78125 
L 21.578125 24.515625 
Q 13.234375 26.265625 9.515625 29.90625 
Q 5.8125 33.546875 5.8125 39.890625 
Q 5.8125 47.609375 11.28125 51.796875 
Q 16.75 56 26.8125 56 
Q 31.78125 56 36.171875 55.265625 
Q 40.578125 54.546875 44.28125 53.078125 
z
" id="DejaVuSans-115"/>
     <path d="M 9.8125 72.90625 
L 24.515625 72.90625 
L 43.109375 23.296875 
L 61.8125 72.90625 
L 76.515625 72.90625 
L 76.515625 0 
L 66.890625 0 
L 66.890625 64.015625 
L 48.09375 14.015625 
L 38.1875 14.015625 
L 19.390625 64.015625 
L 19.390625 0 
L 9.8125 0 
z
" id="DejaVuSans-77"/>
     <path d="M 64.40625 67.28125 
L 64.40625 56.890625 
Q 59.421875 61.53125 53.78125 63.8125 
Q 48.140625 66.109375 41.796875 66.109375 
Q 29.296875 66.109375 22.65625 58.46875 
Q 16.015625 50.828125 16.015625 36.375 
Q 16.015625 21.96875 22.65625 14.328125 
Q 29.296875 6.6875 41.796875 6.6875 
Q 48.140625 6.6875 53.78125 8.984375 
Q 59.421875 11.28125 64.40625 15.921875 
L 64.40625 5.609375 
Q 59.234375 2.09375 53.4375 0.328125 
Q 47.65625 -1.421875 41.21875 -1.421875 
Q 24.65625 -1.421875 15.125 8.703125 
Q 5.609375 18.84375 5.609375 36.375 
Q 5.609375 53.953125 15.125 64.078125 
Q 24.65625 74.21875 41.21875 74.21875 
Q 47.75 74.21875 53.53125 72.484375 
Q 59.328125 70.75 64.40625 67.28125 
z
" id="DejaVuSans-67"/>
     <path d="M 8.6875 72.90625 
L 18.609375 72.90625 
L 18.609375 28.609375 
Q 18.609375 16.890625 22.84375 11.734375 
Q 27.09375 6.59375 36.625 6.59375 
Q 46.09375 6.59375 50.34375 11.734375 
Q 54.59375 16.890625 54.59375 28.609375 
L 54.59375 72.90625 
L 64.5 72.90625 
L 64.5 27.390625 
Q 64.5 13.140625 57.4375 5.859375 
Q 50.390625 -1.421875 36.625 -1.421875 
Q 22.796875 -1.421875 15.734375 5.859375 
Q 8.6875 13.140625 8.6875 27.390625 
z
" id="DejaVuSans-85"/>
     <path d="M 48.78125 52.59375 
L 48.78125 44.1875 
Q 44.96875 46.296875 41.140625 47.34375 
Q 37.3125 48.390625 33.40625 48.390625 
Q 24.65625 48.390625 19.8125 42.84375 
Q 14.984375 37.3125 14.984375 27.296875 
Q 14.984375 17.28125 19.8125 11.734375 
Q 24.65625 6.203125 33.40625 6.203125 
Q 37.3125 6.203125 41.140625 7.25 
Q 44.96875 8.296875 48.78125 10.40625 
L 48.78125 2.09375 
Q 45.015625 0.34375 40.984375 -0.53125 
Q 36.96875 -1.421875 32.421875 -1.421875 
Q 20.0625 -1.421875 12.78125 6.34375 
Q 5.515625 14.109375 5.515625 27.296875 
Q 5.515625 40.671875 12.859375 48.328125 
Q 20.21875 56 33.015625 56 
Q 37.15625 56 41.109375 55.140625 
Q 45.0625 54.296875 48.78125 52.59375 
z
" id="DejaVuSans-99"/>
     <path d="M 56.203125 29.59375 
L 56.203125 25.203125 
L 14.890625 25.203125 
Q 15.484375 15.921875 20.484375 11.0625 
Q 25.484375 6.203125 34.421875 6.203125 
Q 39.59375 6.203125 44.453125 7.46875 
Q 49.3125 8.734375 54.109375 11.28125 
L 54.109375 2.78125 
Q 49.265625 0.734375 44.1875 -0.34375 
Q 39.109375 -1.421875 33.890625 -1.421875 
Q 20.796875 -1.421875 13.15625 6.1875 
Q 5.515625 13.8125 5.515625 26.8125 
Q 5.515625 40.234375 12.765625 48.109375 
Q 20.015625 56 32.328125 56 
Q 43.359375 56 49.78125 48.890625 
Q 56.203125 41.796875 56.203125 29.59375 
z
M 47.21875 32.234375 
Q 47.125 39.59375 43.09375 43.984375 
Q 39.0625 48.390625 32.421875 48.390625 
Q 24.90625 48.390625 20.390625 44.140625 
Q 15.875 39.890625 15.1875 32.171875 
z
" id="DejaVuSans-101"/>
     <path d="M 32.171875 -5.078125 
Q 28.375 -14.84375 24.75 -17.8125 
Q 21.140625 -20.796875 15.09375 -20.796875 
L 7.90625 -20.796875 
L 7.90625 -13.28125 
L 13.1875 -13.28125 
Q 16.890625 -13.28125 18.9375 -11.515625 
Q 21 -9.765625 23.484375 -3.21875 
L 25.09375 0.875 
L 2.984375 54.6875 
L 12.5 54.6875 
L 29.59375 11.921875 
L 46.6875 54.6875 
L 56.203125 54.6875 
z
" id="DejaVuSans-121"/>
    </defs>
    <g transform="translate(115.666875 35.472)scale(0.12 -0.12)">
     <use xlink:href="#DejaVuSans-80"/>
     <use x="60.302734" xlink:href="#DejaVuSans-108"/>
     <use x="88.085938" xlink:href="#DejaVuSans-111"/>
     <use x="149.267578" xlink:href="#DejaVuSans-116"/>
     <use x="188.476562" xlink:href="#DejaVuSans-32"/>
     <use x="220.263672" xlink:href="#DejaVuSans-111"/>
     <use x="281.445312" xlink:href="#DejaVuSans-102"/>
     <use x="316.650391" xlink:href="#DejaVuSans-32"/>
     <use x="348.4375" xlink:href="#DejaVuSans-84"/>
     <use x="409.302734" xlink:href="#DejaVuSans-114"/>
     <use x="450.416016" xlink:href="#DejaVuSans-97"/>
     <use x="511.695312" xlink:href="#DejaVuSans-105"/>
     <use x="539.478516" xlink:href="#DejaVuSans-110"/>
     <use x="602.857422" xlink:href="#DejaVuSans-32"/>
     <use x="634.644531" xlink:href="#DejaVuSans-68"/>
     <use x="711.646484" xlink:href="#DejaVuSans-97"/>
     <use x="772.925781" xlink:href="#DejaVuSans-116"/>
     <use x="812.134766" xlink:href="#DejaVuSans-97"/>
     <use x="873.414062" xlink:href="#DejaVuSans-32"/>
     <use x="905.201172" xlink:href="#DejaVuSans-118"/>
     <use x="964.380859" xlink:href="#DejaVuSans-115"/>
     <use x="1016.480469" xlink:href="#DejaVuSans-32"/>
     <use x="1048.267578" xlink:href="#DejaVuSans-77"/>
     <use x="1134.546875" xlink:href="#DejaVuSans-67"/>
     <use x="1204.371094" xlink:href="#DejaVuSans-77"/>
     <use x="1290.650391" xlink:href="#DejaVuSans-67"/>
     <use x="1360.474609" xlink:href="#DejaVuSans-32"/>
     <use x="1392.261719" xlink:href="#DejaVuSans-85"/>
     <use x="1465.455078" xlink:href="#DejaVuSans-110"/>
     <use x="1528.833984" xlink:href="#DejaVuSans-99"/>
     <use x="1583.814453" xlink:href="#DejaVuSans-101"/>
     <use x="1645.337891" xlink:href="#DejaVuSans-114"/>
     <use x="1686.451172" xlink:href="#DejaVuSans-116"/>
     <use x="1725.660156" xlink:href="#DejaVuSans-97"/>
     <use x="1786.939453" xlink:href="#DejaVuSans-105"/>
     <use x="1814.722656" xlink:href="#DejaVuSans-110"/>
     <use x="1878.101562" xlink:href="#DejaVuSans-116"/>
     <use x="1917.310547" xlink:href="#DejaVuSans-121"/>
     <use x="1976.490234" xlink:href="#DejaVuSans-32"/>
    </g>
   </g>
   <g id="legend_1">
    <g id="patch_7">
     <path d="M 277.843437 108.1845 
L 407.72 108.1845 
Q 409.72 108.1845 409.72 106.1845 
L 409.72 48.472 
Q 409.72 46.472 407.72 46.472 
L 277.843437 46.472 
Q 275.843437 46.472 275.843437 48.472 
L 275.843437 106.1845 
Q 275.843437 108.1845 277.843437 108.1845 
z
" style="fill:#ffffff;opacity:0.8;stroke:#cccccc;stroke-linejoin:miter;"/>
    </g>
    <g id="line2d_19">
     <path d="M 279.843437 54.570438 
L 299.843437 54.570438 
" style="fill:none;stroke:#1f77b4;stroke-linecap:square;stroke-width:1.5;"/>
    </g>
    <g id="line2d_20"/>
    <g id="text_16">
     <!-- actual -->
     <defs>
      <path d="M 8.5 21.578125 
L 8.5 54.6875 
L 17.484375 54.6875 
L 17.484375 21.921875 
Q 17.484375 14.15625 20.5 10.265625 
Q 23.53125 6.390625 29.59375 6.390625 
Q 36.859375 6.390625 41.078125 11.03125 
Q 45.3125 15.671875 45.3125 23.6875 
L 45.3125 54.6875 
L 54.296875 54.6875 
L 54.296875 0 
L 45.3125 0 
L 45.3125 8.40625 
Q 42.046875 3.421875 37.71875 1 
Q 33.40625 -1.421875 27.6875 -1.421875 
Q 18.265625 -1.421875 13.375 4.4375 
Q 8.5 10.296875 8.5 21.578125 
z
M 31.109375 56 
z
" id="DejaVuSans-117"/>
     </defs>
     <g transform="translate(307.843437 58.070438)scale(0.1 -0.1)">
      <use xlink:href="#DejaVuSans-97"/>
      <use x="61.279297" xlink:href="#DejaVuSans-99"/>
      <use x="116.259766" xlink:href="#DejaVuSans-116"/>
      <use x="155.46875" xlink:href="#DejaVuSans-117"/>
      <use x="218.847656" xlink:href="#DejaVuSans-97"/>
      <use x="280.126953" xlink:href="#DejaVuSans-108"/>
     </g>
    </g>
    <g id="line2d_21">
     <path d="M 279.843437 69.248563 
L 299.843437 69.248563 
" style="fill:none;stroke:#ff7f0e;stroke-linecap:square;stroke-width:1.5;"/>
    </g>
    <g id="line2d_22"/>
    <g id="text_17">
     <!-- pred. (mean) -->
     <defs>
      <path d="M 18.109375 8.203125 
L 18.109375 -20.796875 
L 9.078125 -20.796875 
L 9.078125 54.6875 
L 18.109375 54.6875 
L 18.109375 46.390625 
Q 20.953125 51.265625 25.265625 53.625 
Q 29.59375 56 35.59375 56 
Q 45.5625 56 51.78125 48.09375 
Q 58.015625 40.1875 58.015625 27.296875 
Q 58.015625 14.40625 51.78125 6.484375 
Q 45.5625 -1.421875 35.59375 -1.421875 
Q 29.59375 -1.421875 25.265625 0.953125 
Q 20.953125 3.328125 18.109375 8.203125 
z
M 48.6875 27.296875 
Q 48.6875 37.203125 44.609375 42.84375 
Q 40.53125 48.484375 33.40625 48.484375 
Q 26.265625 48.484375 22.1875 42.84375 
Q 18.109375 37.203125 18.109375 27.296875 
Q 18.109375 17.390625 22.1875 11.75 
Q 26.265625 6.109375 33.40625 6.109375 
Q 40.53125 6.109375 44.609375 11.75 
Q 48.6875 17.390625 48.6875 27.296875 
z
" id="DejaVuSans-112"/>
      <path d="M 45.40625 46.390625 
L 45.40625 75.984375 
L 54.390625 75.984375 
L 54.390625 0 
L 45.40625 0 
L 45.40625 8.203125 
Q 42.578125 3.328125 38.25 0.953125 
Q 33.9375 -1.421875 27.875 -1.421875 
Q 17.96875 -1.421875 11.734375 6.484375 
Q 5.515625 14.40625 5.515625 27.296875 
Q 5.515625 40.1875 11.734375 48.09375 
Q 17.96875 56 27.875 56 
Q 33.9375 56 38.25 53.625 
Q 42.578125 51.265625 45.40625 46.390625 
z
M 14.796875 27.296875 
Q 14.796875 17.390625 18.875 11.75 
Q 22.953125 6.109375 30.078125 6.109375 
Q 37.203125 6.109375 41.296875 11.75 
Q 45.40625 17.390625 45.40625 27.296875 
Q 45.40625 37.203125 41.296875 42.84375 
Q 37.203125 48.484375 30.078125 48.484375 
Q 22.953125 48.484375 18.875 42.84375 
Q 14.796875 37.203125 14.796875 27.296875 
z
" id="DejaVuSans-100"/>
      <path d="M 31 75.875 
Q 24.46875 64.65625 21.28125 53.65625 
Q 18.109375 42.671875 18.109375 31.390625 
Q 18.109375 20.125 21.3125 9.0625 
Q 24.515625 -2 31 -13.1875 
L 23.1875 -13.1875 
Q 15.875 -1.703125 12.234375 9.375 
Q 8.59375 20.453125 8.59375 31.390625 
Q 8.59375 42.28125 12.203125 53.3125 
Q 15.828125 64.359375 23.1875 75.875 
z
" id="DejaVuSans-40"/>
      <path d="M 52 44.1875 
Q 55.375 50.25 60.0625 53.125 
Q 64.75 56 71.09375 56 
Q 79.640625 56 84.28125 50.015625 
Q 88.921875 44.046875 88.921875 33.015625 
L 88.921875 0 
L 79.890625 0 
L 79.890625 32.71875 
Q 79.890625 40.578125 77.09375 44.375 
Q 74.3125 48.1875 68.609375 48.1875 
Q 61.625 48.1875 57.5625 43.546875 
Q 53.515625 38.921875 53.515625 30.90625 
L 53.515625 0 
L 44.484375 0 
L 44.484375 32.71875 
Q 44.484375 40.625 41.703125 44.40625 
Q 38.921875 48.1875 33.109375 48.1875 
Q 26.21875 48.1875 22.15625 43.53125 
Q 18.109375 38.875 18.109375 30.90625 
L 18.109375 0 
L 9.078125 0 
L 9.078125 54.6875 
L 18.109375 54.6875 
L 18.109375 46.1875 
Q 21.1875 51.21875 25.484375 53.609375 
Q 29.78125 56 35.6875 56 
Q 41.65625 56 45.828125 52.96875 
Q 50 49.953125 52 44.1875 
z
" id="DejaVuSans-109"/>
      <path d="M 8.015625 75.875 
L 15.828125 75.875 
Q 23.140625 64.359375 26.78125 53.3125 
Q 30.421875 42.28125 30.421875 31.390625 
Q 30.421875 20.453125 26.78125 9.375 
Q 23.140625 -1.703125 15.828125 -13.1875 
L 8.015625 -13.1875 
Q 14.5 -2 17.703125 9.0625 
Q 20.90625 20.125 20.90625 31.390625 
Q 20.90625 42.671875 17.703125 53.65625 
Q 14.5 64.65625 8.015625 75.875 
z
" id="DejaVuSans-41"/>
     </defs>
     <g transform="translate(307.843437 72.748563)scale(0.1 -0.1)">
      <use xlink:href="#DejaVuSans-112"/>
      <use x="63.476562" xlink:href="#DejaVuSans-114"/>
      <use x="104.558594" xlink:href="#DejaVuSans-101"/>
      <use x="166.082031" xlink:href="#DejaVuSans-100"/>
      <use x="229.558594" xlink:href="#DejaVuSans-46"/>
      <use x="261.345703" xlink:href="#DejaVuSans-32"/>
      <use x="293.132812" xlink:href="#DejaVuSans-40"/>
      <use x="332.146484" xlink:href="#DejaVuSans-109"/>
      <use x="429.558594" xlink:href="#DejaVuSans-101"/>
      <use x="491.082031" xlink:href="#DejaVuSans-97"/>
      <use x="552.361328" xlink:href="#DejaVuSans-110"/>
      <use x="615.740234" xlink:href="#DejaVuSans-41"/>
     </g>
    </g>
    <g id="line2d_23">
     <path d="M 279.843437 83.926688 
L 299.843437 83.926688 
" style="fill:none;stroke:#2ca02c;stroke-linecap:square;stroke-width:1.5;"/>
    </g>
    <g id="line2d_24"/>
    <g id="text_18">
     <!-- pred.(5th percen.) -->
     <defs>
      <path d="M 54.890625 33.015625 
L 54.890625 0 
L 45.90625 0 
L 45.90625 32.71875 
Q 45.90625 40.484375 42.875 44.328125 
Q 39.84375 48.1875 33.796875 48.1875 
Q 26.515625 48.1875 22.3125 43.546875 
Q 18.109375 38.921875 18.109375 30.90625 
L 18.109375 0 
L 9.078125 0 
L 9.078125 75.984375 
L 18.109375 75.984375 
L 18.109375 46.1875 
Q 21.34375 51.125 25.703125 53.5625 
Q 30.078125 56 35.796875 56 
Q 45.21875 56 50.046875 50.171875 
Q 54.890625 44.34375 54.890625 33.015625 
z
" id="DejaVuSans-104"/>
     </defs>
     <g transform="translate(307.843437 87.426688)scale(0.1 -0.1)">
      <use xlink:href="#DejaVuSans-112"/>
      <use x="63.476562" xlink:href="#DejaVuSans-114"/>
      <use x="104.558594" xlink:href="#DejaVuSans-101"/>
      <use x="166.082031" xlink:href="#DejaVuSans-100"/>
      <use x="229.558594" xlink:href="#DejaVuSans-46"/>
      <use x="261.345703" xlink:href="#DejaVuSans-40"/>
      <use x="300.359375" xlink:href="#DejaVuSans-53"/>
      <use x="363.982422" xlink:href="#DejaVuSans-116"/>
      <use x="403.191406" xlink:href="#DejaVuSans-104"/>
      <use x="466.570312" xlink:href="#DejaVuSans-32"/>
      <use x="498.357422" xlink:href="#DejaVuSans-112"/>
      <use x="561.833984" xlink:href="#DejaVuSans-101"/>
      <use x="623.357422" xlink:href="#DejaVuSans-114"/>
      <use x="664.439453" xlink:href="#DejaVuSans-99"/>
      <use x="719.419922" xlink:href="#DejaVuSans-101"/>
      <use x="780.943359" xlink:href="#DejaVuSans-110"/>
      <use x="844.322266" xlink:href="#DejaVuSans-46"/>
      <use x="876.109375" xlink:href="#DejaVuSans-41"/>
     </g>
    </g>
    <g id="line2d_25">
     <path d="M 279.843437 98.604813 
L 299.843437 98.604813 
" style="fill:none;stroke:#d62728;stroke-linecap:square;stroke-width:1.5;"/>
    </g>
    <g id="line2d_26"/>
    <g id="text_19">
     <!-- pred.(95th percen.) -->
     <defs>
      <path d="M 10.984375 1.515625 
L 10.984375 10.5 
Q 14.703125 8.734375 18.5 7.8125 
Q 22.3125 6.890625 25.984375 6.890625 
Q 35.75 6.890625 40.890625 13.453125 
Q 46.046875 20.015625 46.78125 33.40625 
Q 43.953125 29.203125 39.59375 26.953125 
Q 35.25 24.703125 29.984375 24.703125 
Q 19.046875 24.703125 12.671875 31.3125 
Q 6.296875 37.9375 6.296875 49.421875 
Q 6.296875 60.640625 12.9375 67.421875 
Q 19.578125 74.21875 30.609375 74.21875 
Q 43.265625 74.21875 49.921875 64.515625 
Q 56.59375 54.828125 56.59375 36.375 
Q 56.59375 19.140625 48.40625 8.859375 
Q 40.234375 -1.421875 26.421875 -1.421875 
Q 22.703125 -1.421875 18.890625 -0.6875 
Q 15.09375 0.046875 10.984375 1.515625 
z
M 30.609375 32.421875 
Q 37.25 32.421875 41.125 36.953125 
Q 45.015625 41.5 45.015625 49.421875 
Q 45.015625 57.28125 41.125 61.84375 
Q 37.25 66.40625 30.609375 66.40625 
Q 23.96875 66.40625 20.09375 61.84375 
Q 16.21875 57.28125 16.21875 49.421875 
Q 16.21875 41.5 20.09375 36.953125 
Q 23.96875 32.421875 30.609375 32.421875 
z
" id="DejaVuSans-57"/>
     </defs>
     <g transform="translate(307.843437 102.104813)scale(0.1 -0.1)">
      <use xlink:href="#DejaVuSans-112"/>
      <use x="63.476562" xlink:href="#DejaVuSans-114"/>
      <use x="104.558594" xlink:href="#DejaVuSans-101"/>
      <use x="166.082031" xlink:href="#DejaVuSans-100"/>
      <use x="229.558594" xlink:href="#DejaVuSans-46"/>
      <use x="261.345703" xlink:href="#DejaVuSans-40"/>
      <use x="300.359375" xlink:href="#DejaVuSans-57"/>
      <use x="363.982422" xlink:href="#DejaVuSans-53"/>
      <use x="427.605469" xlink:href="#DejaVuSans-116"/>
      <use x="466.814453" xlink:href="#DejaVuSans-104"/>
      <use x="530.193359" xlink:href="#DejaVuSans-32"/>
      <use x="561.980469" xlink:href="#DejaVuSans-112"/>
      <use x="625.457031" xlink:href="#DejaVuSans-101"/>
      <use x="686.980469" xlink:href="#DejaVuSans-114"/>
      <use x="728.0625" xlink:href="#DejaVuSans-99"/>
      <use x="783.042969" xlink:href="#DejaVuSans-101"/>
      <use x="844.566406" xlink:href="#DejaVuSans-110"/>
      <use x="907.945312" xlink:href="#DejaVuSans-46"/>
      <use x="939.732422" xlink:href="#DejaVuSans-41"/>
     </g>
    </g>
   </g>
  </g>
 </g>
 <defs>
  <clipPath id="p9e3222a68c">
   <rect height="266.112" width="357.12" x="57.6" y="41.472"/>
  </clipPath>
 </defs>
</svg>
